<svg width="174" height="303" viewBox="0 0 174 303" fill="none" xmlns="http://www.w3.org/2000/svg">
<rect x="67" y="2" width="105" height="198" rx="5" fill="#C4C4C4"/>
<circle cx="84.5" cy="18.5" r="6.5" fill="black"/>
<path d="M87.5 18.5C87.5 20.1569 86.1569 21.5 84.5 21.5C82.8431 21.5 81.5 20.1569 81.5 18.5C81.5 16.8431 82.8431 15.5 84.5 15.5C86.1569 15.5 87.5 16.8431 87.5 18.5Z" fill="#C4C4C4"/>
<circle cx="84.5" cy="33.5" r="6.5" fill="black"/>
<path d="M87.5 33.5C87.5 35.1569 86.1569 36.5 84.5 36.5C82.8431 36.5 81.5 35.1569 81.5 33.5C81.5 31.8431 82.8431 30.5 84.5 30.5C86.1569 30.5 87.5 31.8431 87.5 33.5Z" fill="#C4C4C4"/>
<circle cx="84.5" cy="48.5" r="6.5" fill="black"/>
<path d="M87.5 48.5C87.5 50.1569 86.1569 51.5 84.5 51.5C82.8431 51.5 81.5 50.1569 81.5 48.5C81.5 46.8431 82.8431 45.5 84.5 45.5C86.1569 45.5 87.5 46.8431 87.5 48.5Z" fill="#C4C4C4"/>
<circle cx="96.5" cy="25.5" r="2.5" fill="black"/>
<path d="M97.6539 25.5C97.6539 26.1372 97.1373 26.6538 96.5 26.6538C95.8628 26.6538 95.3462 26.1372 95.3462 25.5C95.3462 24.8627 95.8628 24.3461 96.5 24.3461C97.1373 24.3461 97.6539 24.8627 97.6539 25.5Z" fill="#C4C4C4"/>
<circle cx="96.5" cy="31.5" r="2.5" fill="black"/>
<circle cx="118.519" cy="68.7963" r="7.85965" transform="rotate(15 118.519 68.7963)" fill="black"/>
<rect x="67" y="2" width="105" height="198" rx="5" stroke="black" stroke-width="4"/>
<rect x="8.5" y="110.5" width="92" height="183" fill="#E5E5E5"/>
<circle cx="54.5" cy="117.5" r="3.5" fill="black"/>
<rect x="8.5" y="110.5" width="92" height="183" stroke="black"/>
<rect x="2" y="103" width="105" height="198" rx="5" stroke="black" stroke-width="4"/>
</svg>
